<?xml version="1.0" standalone="no"?>
<!DOCTYPE svg PUBLIC "-//W3C//DTD SVG 1.1//EN" "http://www.w3.org/Graphics/SVG/1.1/DTD/svg11.dtd" >
<svg xmlns="http://www.w3.org/2000/svg">
<metadata>Generated by IcoMoon</metadata>
<defs>
<font id="lifetheme" horiz-adv-x="1024">
<font-face units-per-em="1024" ascent="960" descent="-64" />
<missing-glyph horiz-adv-x="1024" />
<glyph unicode="&#x20;" horiz-adv-x="512" d="" />
<glyph unicode="&#x2302;" glyph-name="home" horiz-adv-x="1042" d="M906.442-0.003h-771.21c-38.72 0-70.11 31.389-70.11 70.11v0 370.181c-0.001 0.12-0.001 0.262-0.001 0.405 0 19.259 7.765 36.705 20.337 49.377l385.601 385.601c12.666 12.565 30.113 20.334 49.374 20.334 0.143 0 0.286 0 0.428-0.001h-0.022c0.12 0.001 0.262 0.001 0.405 0.001 19.259 0 36.705-7.765 49.377-20.337l385.601-385.601c12.565-12.666 20.334-30.113 20.334-49.374 0-0.143 0-0.286-0.001-0.428v0.022-370.181c0-38.72-31.389-70.11-70.11-70.11v0zM520.838 825.893l-385.606-385.606v-370.181h771.21v370.181z" />
<glyph unicode="&#x2318;" glyph-name="project" horiz-adv-x="1053" d="M947.563 413.721c-25.462 127.049-123.942 225.529-248.958 250.651l-2.034 0.342c-17.415 3.584-37.476 5.695-58.009 5.809h-0.091v193.473h-539.749v-540.91h219.037c14.254-163.609 150.587-291.017 316.676-291.017 66.079 0 127.446 20.167 178.285 54.681l-1.111-0.711c86.218 57.75 142.218 154.784 142.218 264.895 0 22.222-2.281 43.912-6.622 64.847l0.357-2.060zM156.823 805.896h424.71v-140.021c-26.286-4.33-49.723-10.998-71.979-19.978l2.258 0.805c-59.134-24.666-107.741-64.675-142.219-115.106l-0.707-1.094c-28.238-41.706-46.869-92.059-51.627-146.392l-0.084-1.183h-160.355zM581.533 607.194v-226.009h-206.254c10.743 96.186 72.633 175.699 157.485 211.427l1.709 0.639c13.449 5.778 29.228 10.608 45.612 13.716l1.449 0.227zM876.1 251.623c-39.637-96.684-133.027-163.543-242.034-163.543-73.179 0-139.32 30.132-186.693 78.665l-0.050 0.052c-39.63 40.957-65.835 95.123-71.386 155.273l-0.075 1.015h263.774v290.5c16.512-0.406 32.336-2.079 47.746-4.933l-1.848 0.284c120.703-25.038 210.118-130.494 210.118-256.836 0-35.814-7.184-69.95-20.193-101.045l0.643 1.729z" />
<glyph unicode="&#x2364;" glyph-name="person" d="M952 535.103c-17.483 90.319-59.953 168.719-119.85 230.013l0.083-0.086c-81.237 81.781-193.758 132.401-318.1 132.401-62.742 0-122.476-12.889-176.695-36.164l2.918 1.114c-163.81-69.183-276.681-228.494-276.681-414.167 0-0.076 0-0.15 0-0.226v0.011c-0.007-0.958-0.011-2.091-0.011-3.223 0-123.8 50.18-235.879 131.307-317.010v0c40.375-40.895 88.71-73.823 142.504-96.284l2.881-1.066c50.745-21.63 109.78-34.203 171.752-34.203 185.772 0 345.152 112.99 413.17 273.997l1.105 2.944c21.876 51.004 34.593 110.362 34.593 172.691 0 31.594-3.268 62.426-9.484 92.174l0.51-2.914zM725.276 127.767c-60.392-40.272-134.634-64.263-214.479-64.263-52.654 0-102.87 10.433-148.696 29.345l2.593-0.948c-48.301 20.775-89.535 49.078-124.24 83.892l-0.009 0.009c-69.919 69.603-113.185 165.928-113.185 272.358 0 79.427 24.097 153.225 65.379 214.484l-0.868-1.369c69.907 103.705 186.926 171.005 319.664 171.005 0.201 0 0.401 0 0.6-0.001h-0.031c26.542-0.022 52.418-2.821 77.369-8.118l-2.434 0.432c77.46-15.767 144.489-52.952 196.626-105.040l-0.003 0.003c44.21-44.080 77.482-99.104 95.409-160.666l0.662-2.653s0 4.484-4.484 6.404c-22.158 21.858-50.516 37.485-82.197 44.010l-1.063 0.183c-9.572 2.050-20.57 3.224-31.843 3.224-22.022 0-42.999-4.482-62.066-12.583l1.039 0.392c-28.859-11.916-52.6-31.329-69.471-55.838l-0.341-0.523c-5.113 7.946-10.385 14.847-16.153 21.296l0.141-0.161c-21.938 21.848-50.086 37.478-81.566 44.010l-1.054 0.183c-9.435 1.95-20.279 3.068-31.382 3.068-89.443 0-161.962-72.471-162.037-161.896v-0.007c0.035-44.43 17.877-84.686 46.773-114.023l-0.021 0.021c14.636-14.708 32.079-26.608 51.461-34.828l1.058-0.399c18.722-7.7 40.458-12.171 63.235-12.171 0.285 0 0.57 0.001 0.854 0.002h-0.044c52.981 0.275 99.692 26.873 127.754 67.372l0.34 0.517c5.491-7.597 11.165-14.288 17.311-20.512l-0.018 0.019c14.544-14.855 32.016-26.779 51.49-34.848l1.028-0.377c18.532-7.702 40.056-12.174 62.627-12.174 0.5 0 0.997 0.002 1.496 0.007l-0.077-0.001c33.68 0.055 64.949 10.337 90.877 27.905l-0.571-0.365c11.089 7.978 20.752 16.83 29.283 26.689l0.178 0.211c-4.26-16.103-8.856-29.533-14.258-42.543l0.808 2.193c-30.297-72.002-79.762-130.947-142.041-172.044l-1.423-0.881zM853.368 410.212c-7.754-18.001-20.074-32.79-35.523-43.331l-0.343-0.22c-15.533-10.685-34.748-17.066-55.455-17.066-27.723 0-52.775 11.439-70.695 29.853l-0.021 0.022c-17.257 17.693-27.969 41.84-28.181 68.488v0.041c0.013 20.101 6.239 38.745 16.861 54.118l-0.208-0.318c17.762 26.123 47.199 43.157 80.639 43.551l0.060 0.001h19.215c19.773-3.804 36.868-13.376 49.932-26.875l0.024-0.025c13.296-13.237 22.81-30.262 26.789-49.32l0.111-0.637c1.334-5.964 2.1-12.812 2.1-19.84 0-13.671-2.894-26.666-8.104-38.407l0.239 0.604zM592.059 410.212c-7.989-18.027-20.51-32.813-36.146-43.323l-0.36-0.229c-15.207-10.305-33.961-16.452-54.152-16.452-13.51 0-26.377 2.753-38.071 7.725l0.637-0.241c-12.245 5.097-22.682 12.246-31.367 21.118l-0.017 0.017c-18.813 17.266-30.75 41.764-31.381 69.058l-0.002 0.112c0.317 40.183 24.771 74.577 59.564 89.423l0.641 0.243c10.954 4.776 23.709 7.594 37.113 7.685h0.035c47.045-0.202 86.3-33.31 95.95-77.485l0.12-0.653c1.222-5.865 1.922-12.603 1.922-19.505 0-13.272-2.587-25.939-7.287-37.525l0.24 0.669z" />
<glyph unicode="&#x23f2;" glyph-name="clock" d="M951.742 535.535c-18.89 90.302-62.229 168.438-122.725 229.56l0.038-0.038c-60.874 60.63-139.135 103.846-226.654 121.514l-2.866 0.483c-26.749 5.792-57.477 9.11-88.98 9.11-61.706 0-120.44-12.73-173.718-35.706l2.85 1.094c-163.157-69.469-275.505-228.365-275.701-413.525v-0.025c-0.001-0.24-0.001-0.525-0.001-0.809 0-123.496 50.044-235.303 130.96-316.247l-0.002 0.002c40.531-40.246 88.544-73.018 141.761-96.036l2.982-1.148c50.966-21.317 110.185-33.722 172.292-33.773h0.021c0.020 0 0.041 0 0.063 0 92.687 0 178.82 28.060 250.368 76.148l-1.611-1.020c121.022 81.485 199.57 217.978 199.57 372.818 0 31-3.148 61.266-9.144 90.494l0.496-2.891zM862.14 302.568c-58.188-139.209-193.248-235.249-350.739-235.249-51.987 0-101.531 10.466-146.64 29.403l2.498-0.931c-139.213 57.967-235.298 192.91-235.298 350.297 0 79.177 24.317 152.672 65.892 213.43l-0.838-1.296c68.541 104.151 184.914 171.954 317.122 171.954 184.732 0 338.546-132.377 371.757-307.445l0.371-2.36c4.176-20.945 6.565-45.027 6.565-69.664 0-53.563-11.294-104.487-31.628-150.524l0.94 2.385zM724.289 532.778c1.701-3.984 2.691-8.62 2.691-13.488 0-14.143-8.353-26.334-20.394-31.913l-0.217-0.091-189.543-82.711c-3.915-1.637-8.465-2.588-13.239-2.588-10.314 0-19.593 4.444-26.023 11.519l-0.026 0.029-159.907 214.357c-4.304 5.688-6.893 12.88-6.893 20.677 0 19.034 15.429 34.463 34.463 34.463 11.237 0 21.216-5.377 27.508-13.699l0.063-0.087 141.297-190.233 164.042 72.372c3.914 1.634 8.46 2.584 13.228 2.584 14.367 0 26.722-8.619 32.173-20.97l0.089-0.225z" />
<glyph unicode="&#x25b2;" glyph-name="circle-arrow-up" d="M951.742 535.535c-18.735 90.12-62.11 168.068-122.699 228.843l0.011-0.011c-60.68 61.093-139.004 104.592-226.687 122.212l-2.835 0.475c-26.749 5.792-57.477 9.11-88.98 9.11-61.706 0-120.44-12.73-173.718-35.706l2.849 1.094c-163.157-69.469-275.506-228.365-275.701-413.525v-0.025c-0.001-0.24-0.001-0.526-0.001-0.809 0-123.496 50.044-235.304 130.96-316.247l-0.002 0.002c40.531-40.246 88.544-73.018 141.762-96.036l2.982-1.148c50.966-21.317 110.185-33.722 172.292-33.773h0.022c0.020 0 0.041 0 0.064 0 92.687 0 178.82 28.060 250.368 76.148l-1.611-1.020c121.023 81.485 199.57 217.978 199.57 372.818 0 31-3.148 61.266-9.144 90.494l0.496-2.891zM862.14 302.568c-58.188-139.209-193.248-235.249-350.739-235.249-51.988 0-101.531 10.466-146.64 29.403l2.498-0.932c-139.214 57.967-235.298 192.91-235.298 350.298 0 79.177 24.316 152.672 65.893 213.431l-0.838-1.296c68.541 104.151 184.914 171.954 317.122 171.954 184.732 0 338.546-132.377 371.757-307.445l0.372-2.359c4.176-20.945 6.565-45.028 6.565-69.664 0-53.563-11.293-104.487-31.628-150.524l0.94 2.385zM539.57 677.522l213.669-215.736-46.179-48.249-160.597 156.46v-329.463h-68.925v329.463l-163.353-166.8-48.936 48.936 225.385 225.385c5.813 6.98 14.42 11.463 24.081 11.716l0.043 0.001c9.881-0.41 18.655-4.839 24.783-11.685l0.030-0.034z" />
<glyph unicode="&#x25b4;" glyph-name="triangle" horiz-adv-x="1205" d="M995.026 63.928h-810.706c-0.174-0.004-0.378-0.006-0.583-0.006-12.215 0-22.851 6.754-28.383 16.729l-0.085 0.165c-2.845 4.846-4.525 10.67-4.525 16.891s1.68 12.045 4.612 17.048l-0.087-0.161 405.353 701.936c6.215 9.637 16.899 15.93 29.050 15.93s22.835-6.29 28.969-15.793l0.081-0.137 405.353-701.936c2.845-4.846 4.525-10.67 4.525-16.891s-1.68-12.045-4.612-17.048l0.087 0.161c-5.614-10.142-16.253-16.894-28.467-16.894-0.206 0-0.411 0.003-0.616 0.006l0.030-0.001zM243.095 131.487h693.154l-346.577 600.598z" />
<glyph unicode="&#x25b7;" glyph-name="arrow-right" horiz-adv-x="967" d="M899.228 448.461c0.219-1.723 0.344-3.717 0.344-5.738 0-10.288-3.238-19.82-8.75-27.632l0.102 0.151-420.781-415.243-64.593 65.516 335.886 336.809h-680.999v92.276h680.999l-335.886 335.886 64.593 65.516 420.781-415.243c5.393-7.455 8.626-16.78 8.626-26.861 0-1.915-0.117-3.803-0.343-5.657l0.021 0.222z" />
<glyph unicode="&#x25ef;" glyph-name="circle" d="M512-8.012c-63.239 0.052-123.516 12.682-178.479 35.513l3.091-1.137c-57.205 24.601-106.074 57.954-147.352 98.947l0.029-0.029c-82.356 82.493-133.283 196.384-133.283 322.169 0 94.637 28.827 182.541 78.185 255.409l-1.024-1.603c49.686 74.358 118.96 132.121 200.491 166.563l2.956 1.112c51.33 22.272 111.109 35.231 173.919 35.231 32.068 0 63.342-3.379 93.492-9.794l-2.927 0.522c91.965-18.606 171.591-62.567 233.643-124.202l-0.028 0.028c61.538-62.173 105.65-141.705 124.344-230.592l0.534-3.027c5.589-26.786 8.79-57.567 8.79-89.096 0-251.85-204.163-456.012-456.012-456.012-0.132 0-0.257 0-0.389 0h0.023zM512 833.855c-133.172-0.171-250.519-67.78-319.738-170.503l-0.875-1.376c-41.001-60.212-65.465-134.544-65.465-214.591 0-159.782 97.476-296.801 236.211-354.828l2.537-0.941c43.37-18.33 93.802-28.983 146.719-28.983 160.3 0 297.773 97.751 356.055 236.905l0.943 2.543c18.661 43.324 29.507 93.759 29.507 146.727 0 27.035-2.823 53.406-8.199 78.841l0.436-2.48c-37.903 176.981-192.62 307.877-378.048 308.686h-0.086z" />
<glyph unicode="&#x25f1;" glyph-name="new-window" horiz-adv-x="967" d="M753.511 103.104v523.183l-530.294-530.294-72.127 72.127 530.294 530.294h-523.183v101.588h646.104c27.826-0.556 50.236-22.968 50.795-50.74l0.001-0.052v-646.104z" />
<glyph unicode="&#x260a;" glyph-name="info" d="M951.742 535.535c-18.89 90.302-62.229 168.438-122.725 229.56l0.038-0.038c-60.936 60.529-139.169 103.719-226.632 121.507l-2.89 0.491c-26.749 5.792-57.477 9.11-88.98 9.11-61.706 0-120.44-12.73-173.718-35.706l2.85 1.094c-163.157-69.469-275.505-228.365-275.701-413.525v-0.025c-0.001-0.24-0.001-0.525-0.001-0.809 0-123.496 50.044-235.303 130.96-316.247l-0.002 0.002c40.531-40.246 88.544-73.018 141.761-96.036l2.982-1.148c50.966-21.317 110.185-33.722 172.292-33.773h0.021c0.020 0 0.041 0 0.063 0 92.687 0 178.82 28.060 250.368 76.148l-1.611-1.020c121.022 81.485 199.57 217.978 199.57 372.818 0 31-3.148 61.266-9.144 90.494l0.496-2.891zM862.14 302.568c-58.188-139.209-193.248-235.249-350.739-235.249-51.987 0-101.531 10.466-146.64 29.403l2.498-0.931c-139.213 57.967-235.298 192.91-235.298 350.297 0 79.177 24.317 152.672 65.892 213.43l-0.838-1.296c68.541 104.151 184.914 171.954 317.122 171.954 184.732 0 338.546-132.377 371.757-307.445l0.371-2.36c4.176-20.945 6.565-45.027 6.565-69.664 0-53.563-11.294-104.487-31.628-150.524l0.94 2.385zM569.897 283.958h99.941v-68.925h-268.808v68.925h99.941v206.776h-77.885v68.925h146.81zM525.096 598.257c0.204-0.003 0.447-0.005 0.69-0.005 28.93 0 52.383 23.452 52.383 52.383s-23.452 52.383-52.383 52.383c-28.929 0-52.38-23.449-52.383-52.379v0c0-0.002 0-0.003 0-0.005 0-28.687 23.061-51.989 51.657-52.379h0.036z" />
<glyph unicode="&#x260f;" glyph-name="talk" horiz-adv-x="1073" d="M792.468 738.369c0.556 0.010 1.208 0.017 1.867 0.017 60.253 0 109.1-48.846 109.1-109.1 0-0.655-0.007-1.311-0.019-1.963l0.002 0.099v-226.829c0.010-0.556 0.017-1.208 0.017-1.867 0-60.253-48.846-109.1-109.1-109.1-0.655 0-1.311 0.007-1.963 0.019l0.099-0.002h-197.243l-235.459-196.010v196.010h-85.061c-0.556-0.010-1.208-0.017-1.867-0.017-60.253 0-109.1 48.846-109.1 109.1 0 0.655 0.007 1.311 0.019 1.963l-0.002-0.099v226.829c-0.010 0.556-0.017 1.208-0.017 1.867 0 60.253 48.846 109.1 109.1 109.1 0.655 0 1.311-0.007 1.963-0.019l-0.099 0.002h517.762zM792.468 800.008h-517.762c-0.553 0.007-1.207 0.009-1.859 0.009-94.297 0-170.738-76.442-170.738-170.738 0-0.655 0.005-1.306 0.011-1.96l-0.001 0.101v-226.829c-0.007-0.553-0.009-1.207-0.009-1.859 0-94.297 76.442-170.738 170.738-170.738 0.655 0 1.306 0.005 1.96 0.011l-0.101-0.001h23.422v-134.372c0.071-24.342 14.24-45.356 34.767-55.315l0.367-0.163c7.743-3.835 16.853-6.104 26.484-6.162h0.019c0.036 0 0.079 0 0.121 0 14.996 0 28.741 5.356 39.43 14.258l-0.101-0.079 219.431 184.915h173.821c0.551-0.007 1.202-0.009 1.855-0.009 93.865 0 170.040 75.746 170.734 169.45l0.001 0.067v226.829c0.007 0.553 0.009 1.207 0.009 1.859 0 94.297-76.442 170.738-170.738 170.738-0.655 0-1.306-0.005-1.96-0.011l0.101 0.001z" />
<glyph unicode="&#x2661;" glyph-name="heart" horiz-adv-x="1186" d="M822.14 738.633c5.525 0.752 11.909 1.179 18.397 1.179 79.54 0 144.018-64.478 144.018-144.018 0-6.082-0.378-12.074-1.108-17.956l0.071 0.704c-9.82-71.016-43.699-132.737-93.005-177.894l-0.222-0.199-292.537-290.609-293.822 291.893c-48.922 45.11-82.346 106.377-91.769 175.288l-0.171 1.52c-0.839 5.806-1.321 12.508-1.321 19.323 0 78.474 63.616 142.089 142.089 142.089 6.815 0 13.517-0.479 20.075-1.406l-0.754 0.088c62.62-11.402 116.133-44.113 153.947-90.202l0.358-0.452c9.076-9.106 19.711-16.653 31.467-22.213l0.681-0.289c11.272-4.878 24.401-7.715 38.189-7.715 0.137 0 0.271 0 0.406 0.001h-0.020c0.288-0.005 0.63-0.006 0.971-0.006 13.654 0 26.586 3.083 38.14 8.593l-0.537-0.23c12.401 5.113 22.912 12.532 31.447 21.798l0.054 0.062c38.32 46.662 92.083 79.405 153.386 90.42l1.562 0.234zM822.14 802.927c-80.902-11.663-150.731-51.972-200.219-110.13l-0.38-0.455c-2.985-3.080-6.639-5.493-10.728-7.008l-0.199-0.066c-3.935-2.008-8.581-3.184-13.501-3.184s-9.569 1.176-13.673 3.262l0.173-0.078c-4.289 1.58-7.943 3.994-10.922 7.064l-0.006 0.006c-49.863 58.613-119.696 98.921-198.867 110.379l-1.731 0.206c-6.084 0.642-13.148 1.007-20.294 1.007-113.272 0-205.097-91.826-205.097-205.097 0-7.146 0.367-14.21 1.079-21.169l-0.073 0.874c9.919-89.464 50.881-167.865 111.706-225.516l0.163-0.154 313.754-311.183c6.398-5.925 14.99-9.557 24.431-9.557s18.035 3.635 24.454 9.581l-0.023-0.021 313.754 311.183c60.992 57.809 101.954 136.209 111.723 224.025l0.15 1.646c0.475 5.263 0.743 11.38 0.743 17.565 0 114.694-92.976 207.668-207.668 207.668-6.601 0-13.127-0.308-19.57-0.911l0.826 0.063z" />
<glyph unicode="&#x266c;" glyph-name="music" horiz-adv-x="1084" d="M966.718 155.157v707.704l-610.090-151.302v-483.191c-58.569 34.165-156.183 34.165-209.871-4.881-29.283-19.522-43.927-48.808-43.927-73.211s14.642-53.689 43.927-73.211c29.283-19.522 68.33-29.283 107.376-29.283s78.091 9.761 107.376 29.283c29.283 19.522 43.927 43.927 43.927 73.211v317.246l512.476 126.899v-370.934c-58.569 34.165-156.183 34.165-209.871-4.881-29.283-19.522-43.927-43.927-43.927-73.211s14.642-53.689 43.927-73.211c29.283-19.522 68.33-29.283 107.376-29.283s78.091 9.761 107.376 29.283c29.283 19.522 43.927 43.927 43.927 73.211 0 4.881 0 9.761 0 9.761zM337.105 116.111c-39.046-29.283-122.018-29.283-161.063 0-14.642 9.761-24.403 24.403-24.403 34.165s9.761 19.522 24.403 29.283c19.522 14.642 48.808 19.522 82.972 19.522 29.283 0 58.569-9.761 82.972-19.522 9.761-9.761 19.522-19.522 24.403-24.403v-4.881c-4.881-9.761-14.642-24.403-29.283-34.165zM405.436 516.33v156.183l512.476 126.899v-156.183l-512.476-126.899zM898.388 116.111c-39.046-29.283-122.018-29.283-161.063 0-14.642 9.761-24.403 19.522-24.403 29.283s9.761 19.522 24.403 29.283c19.522 14.642 48.808 19.522 82.972 19.522s58.569-9.761 82.972-19.522c9.761-9.761 19.522-19.522 19.522-24.403v-4.881c-4.881-4.881-9.761-19.522-24.403-29.283z" />
<glyph unicode="&#x26ad;" glyph-name="camera" horiz-adv-x="1325" d="M1162.3 672.108c-13.449 13.195-31.759 21.48-51.999 21.929l-0.085 0.002h-185.043l-95.263 145.979c-10.558 11.524-24.321 19.95-39.878 23.868l-0.558 0.12h-238.5c-18.003-4.652-33.248-14.557-44.438-27.963l-0.111-0.137-91.152-141.867h-185.043c-20.327-0.45-38.635-8.736-52.099-21.942l0.012 0.012c-13.464-13.539-21.822-32.169-21.931-52.751v-513.345c0.061-20.395 8.441-38.822 21.921-52.075l0.010-0.009c13.449-13.195 31.759-21.48 51.999-21.929l0.085-0.002h879.983c20.327 0.45 38.635 8.736 52.099 21.942l-0.012-0.012c13.544 13.42 21.931 32.026 21.931 52.589 0 0.064 0 0.128 0 0.192v-0.009 513.323c-0.061 20.395-8.441 38.822-21.921 52.075l-0.010 0.009zM1115.697 106.698l-5.482-6.169h-879.298l-6.169 6.169v512.638l6.169 6.169h205.603c0.208-0.006 0.452-0.007 0.697-0.007 11.836 0 22.211 6.249 28.006 15.629l0.082 0.141 94.577 154.203h217.941l100.061-154.203c5.877-9.522 16.252-15.77 28.088-15.77 0.245 0 0.489 0.003 0.735 0.007l-0.036-0.001h205.603l5.482-6.169zM670.221 630.988c-126.042-0.001-228.219-102.178-228.219-228.22s102.178-228.22 228.22-228.22c126.042 0 228.22 102.178 228.22 228.22 0 0.241 0 0.482-0.001 0.722v-0.037c-0.39 125.747-102.417 227.536-228.219 227.536-0.001 0-0.001 0-0.002 0v0zM670.221 243.767c-88.192 0-159.685 71.494-159.685 159.685s71.494 159.685 159.685 159.685c88.192 0 159.685-71.494 159.685-159.685v0c0-88.192-71.494-159.685-159.685-159.685v0z" />
<glyph unicode="&#x2726;" glyph-name="rss" horiz-adv-x="1078" d="M235.104 632.892c-40.253-0.305-79.045-6.022-115.853-16.46l3.070 0.745v46.224c33.646 9.329 72.399 15.023 112.372 15.711l0.411 0.007c280.81 0 508.45-227.641 508.45-508.45v0c0.033-2.024 0.049-4.414 0.049-6.807 0-41.6-5.415-81.937-15.577-120.342l0.735 3.272h-46.224c9.564 32.66 15.067 70.179 15.067 108.983 0 5.237-0.099 10.452-0.299 15.641l0.022-0.748c0 255.281-206.946 462.228-462.228 462.228v0zM886.845 170.664c0-0.091 0-0.199 0-0.306 0-43.742-4.544-86.422-13.188-127.594l0.708 4.024h46.224c7.638 37.1 12.168 79.864 12.478 123.63l0.002 0.248c0 382.922-310.418 693.341-693.341 693.341v0c-41.751-0.384-82.326-4.233-121.793-11.28l4.388 0.649v-46.224c35.241 6.656 75.835 10.52 117.309 10.63h0.097c357.393 0 647.117-289.724 647.117-647.117v0zM378.393 170.664c0-76.584-62.084-138.669-138.669-138.669s-138.669 62.084-138.669 138.669v0c0.129 23.951 6.455 46.394 17.454 65.849l-0.351-0.675h4.16v7.859c24.942 39.23 68.18 64.882 117.407 64.882 76.32 0 138.239-61.655 138.666-137.874v-0.041zM332.171 170.664c0 51.057-41.389 92.445-92.445 92.445s-92.445-41.389-92.445-92.445c0-51.057 41.389-92.445 92.445-92.445v0c51.057 0 92.445 41.389 92.445 92.445v0zM517.061 170.664c-0.282-45.246-11.356-87.841-30.773-125.427l0.728 1.551h50.845c15.834 36.548 25.158 79.089 25.423 123.776l0.001 0.099c0 178.697-144.863 323.56-323.56 323.56v0c-1.866 0.040-4.063 0.062-6.268 0.062-39.947 0-78.147-7.485-113.271-21.131l2.134 0.73v-50.845c32.406 15.804 70.508 25.046 110.767 25.046 2.334 0 4.661-0.032 6.981-0.093l-0.344 0.007c153.169 0 277.336-124.167 277.336-277.336v0z" />
<glyph unicode="&#x2729;" glyph-name="star" horiz-adv-x="1073" d="M1007.945 557.498c-4.245 12.587-15.77 21.565-29.447 21.961l-0.047 0.001h-313.749l-96.008 298.061c-4.027 13.775-16.545 23.668-31.375 23.668s-27.348-9.892-31.317-23.436l-0.058-0.231-97.263-294.923-310.611-3.137c-0.16 0.003-0.347 0.005-0.537 0.005-14.202 0-26.284-9.073-30.768-21.739l-0.070-0.229c-1.294-3.306-2.044-7.135-2.044-11.139 0-11.103 5.768-20.858 14.469-26.434l0.125-0.076 250.998-188.25-94.124-291.158c-0.962-2.848-1.516-6.128-1.516-9.538 0-10.248 5.014-19.325 12.723-24.913l0.090-0.062c4.994-3.819 11.328-6.119 18.197-6.119s13.203 2.301 18.27 6.172l-0.073-0.053 250.998 180.092 250.998-180.092c4.98-3.873 11.309-6.227 18.186-6.276h0.011c6.864 0.273 13.138 2.585 18.292 6.341l-0.094-0.065c7.797 5.649 12.812 14.727 12.812 24.974 0 3.41-0.556 6.69-1.58 9.755l0.063-0.218-87.85 296.806 250.998 188.25c7.415 5.795 12.136 14.738 12.136 24.785 0 2.56-0.306 5.050-0.885 7.432l0.044-0.215zM694.197 374.269c-7.743-5.78-12.704-14.918-12.704-25.215 0-3.318 0.514-6.517 1.471-9.519l-0.062 0.222 71.535-228.409-198.916 138.677c-5.082 3.553-11.391 5.677-18.197 5.677s-13.115-2.124-18.301-5.746l0.105 0.068-195.152-138.677 71.535 228.409c0.895 2.781 1.409 5.98 1.409 9.298 0 10.297-4.96 19.434-12.622 25.155l-0.082 0.059-192.014 145.58h239.077c13.517 0.482 24.899 9.114 29.419 21.109l76.63 229.889 76.555-229.664c4.593-12.221 15.976-20.854 29.435-21.334l0.057-0.002h239.077z" />
<glyph unicode="&#x273b;" glyph-name="bookmark" horiz-adv-x="896" d="M749.918 765.422v-597.077l-260.447 168.639-35.81 24.090-29.299-24.090-260.447-168.639v597.077h586.007zM782.474 830.532h-651.121c-17.981 0-32.555-14.575-32.555-32.555v0-709.723c0.5-9.121 5.865-16.886 13.532-20.773l0.141-0.066h7.815c6.288 0.18 11.972 2.621 16.3 6.529l-0.023-0.021 319.699 209.010 321.002-210.962c4.202-4.032 9.92-6.511 16.214-6.511 0.023 0 0.045 0 0.071 0h7.812c8.171 4.154 13.672 12.5 13.672 22.127 0 0.006 0 0.006 0 0.012v-0.001 710.372c0 17.981-14.575 32.555-32.555 32.555v0z" />
<glyph unicode="&#x2794;" glyph-name="exit" horiz-adv-x="1025" d="M896.13 789.338v-315.738h-85.334v212.483l-398.512-398.512-60.587 59.734 399.366 399.366h-226.137v85.334h328.538c0.18 0.004 0.392 0.006 0.606 0.006 11.821 0 22.496-4.905 30.103-12.792l0.012-0.013c7.393-7.663 11.947-18.103 11.947-29.612 0-0.090 0-0.18-0.001-0.27v0.014zM810.796 149.328h-597.342v597.342h130.562v85.334h-173.229c-23.564 0-42.669-19.102-42.669-42.669v0-682.677c0-23.564 19.102-42.669 42.669-42.669v0h682.677c23.564 0 42.669 19.102 42.669 42.669v0 182.616h-85.334z" />
<glyph unicode="&#x2906;" glyph-name="double-left-arrow" horiz-adv-x="1389" d="M1302.088 402.325h-680.996l335.884-336.808-64.593-65.514-415.241 415.241c-8.43 8.363-13.647 19.951-13.647 32.758s5.218 24.395 13.643 32.753l415.244 415.244 64.593-65.514-335.884-335.884h680.996zM580.49 830.484l-64.593 65.514-415.241-415.241c-8.43-8.363-13.647-19.951-13.647-32.758s5.218-24.395 13.643-32.753l415.244-415.244 64.593 65.514-382.022 382.945z" />
<glyph unicode="&#x2907;" glyph-name="double-right-arrow" horiz-adv-x="1389" d="M917.296 415.242l-420.778-415.241-64.593 65.514 335.884 336.808h-680.996v92.276h680.996l-335.884 335.884 64.593 65.514 420.778-415.241c7.994-8.284 12.919-19.578 12.919-32.020 0-0.097 0-0.195-0.001-0.292v0.015c0.002-0.137 0.003-0.302 0.003-0.462 0-12.678-4.916-24.206-12.945-32.783l0.024 0.027zM1286.4 480.758l-413.396 415.241-64.593-65.514 385.714-382.022-385.714-382.945 64.593-65.514 413.396 415.241c8.542 8.238 13.846 19.781 13.846 32.564 0 0.232-0.002 0.46-0.006 0.691v-0.036c0.002 0.158 0.004 0.344 0.004 0.528 0 12.535-5.317 23.826-13.819 31.745l-0.026 0.023z" />
<glyph unicode="&#x290a;" glyph-name="double-up-arrow" horiz-adv-x="755" d="M401.642 608.907l306.164-306.164-48.306-48.306-248.333 248.333v-502.789h-68.036v502.789l-247.653-248.333-48.306 48.306 306.164 306.164c6.239 6.055 14.76 9.786 24.152 9.786s17.914-3.732 24.162-9.795l-0.008 0.008zM377.149 813.015l282.351-280.991 48.306 48.306-306.164 306.164c-6.239 6.055-14.76 9.786-24.152 9.786s-17.914-3.732-24.162-9.795l-306.155-306.155 48.306-48.306z" />
<glyph unicode="&#x2913;" glyph-name="double-down-arrow" horiz-adv-x="755" d="M353.342 283.734l-306.086 309.486 48.294 48.294 247.589-248.269v502.661h68.018v-502.661l248.269 248.269 48.294-48.294-306.086-309.486c-6.303-5.901-14.802-9.525-24.145-9.525-0.119 0-0.24 0.001-0.358 0.002h0.019c-0.061 0-0.133-0.001-0.204-0.001-9.172 0-17.495 3.63-23.613 9.533l0.010-0.009zM377.149 79.676l-281.599 284.319-48.294-47.613 306.086-304.725c5.854-6.285 14.179-10.206 23.417-10.206 0.137 0 0.273 0.001 0.411 0.003h-0.021c0.144-0.003 0.314-0.004 0.482-0.004 9.423 0 17.932 3.91 23.993 10.196l0.009 0.010 306.086 306.086-48.294 46.254z" />
<glyph unicode="&#x2b05;" glyph-name="arrow-left" horiz-adv-x="959" d="M898.727 402.324h-680.998l335.885-336.808-64.593-65.515-415.243 415.243c-8.542 8.238-13.846 19.781-13.846 32.564 0 0.231 0.002 0.46 0.006 0.691v-0.035c-0.002 0.158-0.004 0.343-0.004 0.528 0 12.535 5.317 23.826 13.819 31.745l0.026 0.023 415.243 415.243 64.593-65.515-335.885-335.885h680.998z" />
<glyph unicode="&#x2b07;" glyph-name="arrow-down" horiz-adv-x="1094" d="M1022.849 457.313l-441.118-446.019c-9.084-8.504-21.331-13.727-34.797-13.727-0.173 0-0.345 0.001-0.517 0.003h0.026c-0.088-0.001-0.19-0.001-0.294-0.001-13.218 0-25.213 5.232-34.028 13.739l0.015-0.014-441.118 446.019 69.599 69.599 356.814-357.794v724.413h98.025v-724.413l357.794 357.794z" />
<glyph unicode="&#x2b08;" glyph-name="arrow-up" horiz-adv-x="1094" d="M955.53 368.646l-359.803 359.803v-728.479h-98.576v728.479l-358.818-359.803-69.988 69.988 443.593 443.593c9.040 8.772 21.385 14.179 34.995 14.179s25.955-5.408 35.008-14.191l443.581-443.581z" />
<glyph unicode="&#x1f311;" glyph-name="globe" horiz-adv-x="1023" d="M511.249 895.904c-246.141-1.121-445.244-200.914-445.244-447.212 0-60.248 11.915-117.714 33.514-170.169l-1.084 2.975v-4.815c69.2-162.983 227.901-275.21 412.814-275.21 246.99 0 447.216 200.226 447.216 447.216s-200.226 447.216-447.216 447.216v0zM889.663 448.688c-0.097-45.947-8.413-89.922-23.554-130.573l0.848 2.602c-32.199 14.935-70.446 28.588-110.060 38.842l-4.841 1.064c0 28.896 4.129 57.795 4.129 88.068s0 42.658 0 63.298c45.765 12.191 85.332 27.228 122.872 45.749l-3.845-1.714c9.189-30.766 14.477-66.116 14.477-102.704 0-1.628-0.010-3.251-0.032-4.874l0.003 0.245zM332.363 448.688c0 16.513 0 32.337 0 48.162 43.689-7.424 94.982-12.376 147.17-13.732l1.444-0.030v-94.26c-51.57-2.013-100.323-7.684-147.85-16.802l6.117 0.976c-5.504 24.081-6.881 49.538-6.881 75.683zM549.779 811.277c56.418-28.896 108.020-121.78 128.66-246.313-37.988-7.185-82.34-11.89-127.574-13.050l-1.086-0.021zM480.976 816.782v-264.89c-50.715 0.892-99.628 5.861-147.222 14.598l5.489-0.836c24.769 135.541 81.875 227.736 141.733 251.129zM480.976 320.027v-239.433c-55.043 22.704-108.708 104.579-134.164 224.296 39.146 7.726 85.285 13.148 132.324 15.076l1.84 0.061zM549.779 86.099v233.241c45.063-1.358 87.992-5.807 129.919-13.168l-5.388 0.783c-9.031-90.738-55.595-169.085-123.726-220.276l-0.805-0.58zM549.779 388.142v94.947c49.704 1.419 97.14 6.366 143.431 14.622l-5.827-0.861c0-15.825 0-30.962 0-47.473s0-50.225-3.44-73.619c-39.657 6.901-85.978 11.366-133.151 12.367l-1.013 0.017zM848.382 620.694c-28.72-14.642-62.51-27.997-97.647-38.179l-4.18-1.038c-11.97 79.623-39.853 150.948-80.385 213.295l1.263-2.072c78.678-35.968 141.302-95.706 179.961-169.918l0.989-2.088zM352.316 791.325c-38.33-58.93-65.694-128.583-77.365-203.43l-0.383-2.977c-39.023 10.402-72.422 22.618-104.385 37.41l3.934-1.633c39.424 75.212 100.952 134.298 175.88 169.647l2.318 0.984zM132.836 448.688c0 0.167 0 0.365 0 0.563 0 38.087 5.784 74.822 16.524 109.377l-0.698-2.607c33.092-16.202 72.185-30.991 112.766-42.195l4.886-1.152c0-20.64 0-41.969 0-63.987-0.042-3.028-0.065-6.604-0.065-10.186 0-28.643 1.523-56.93 4.493-84.785l-0.3 3.462c-43.044-12.365-79.8-26.652-114.906-43.793l4.135 1.824c-16.217 39.456-25.995 85.208-26.828 133.142l-0.005 0.334zM187.19 253.289c25.778 12.794 56.364 24.733 88.074 34.052l4.121 1.039c13.857-69.467 39.457-131.092 74.873-185.769l-1.254 2.066c-69.673 32.829-126.198 83.826-164.866 146.949l-0.948 1.666zM668.807 102.612c35.987 54.216 62.424 118.068 75.193 186.725l0.49 3.17c37.543-9.916 69.58-21.432 100.312-35.326l-3.99 1.614c-40.653-69.063-100.576-123.003-172.364-155.221l-2.395-0.96z" />
<glyph unicode="&#x1f319;" glyph-name="moon" horiz-adv-x="1109" d="M557.71-0.038c-1.507-0.019-3.286-0.029-5.069-0.029-249.3 0-451.399 202.097-451.399 451.399 0 1.783 0.010 3.563 0.031 5.34l-0.003-0.271c0 0.193-0.001 0.423-0.001 0.652 0 208.922 140.885 384.939 332.832 438.229l3.197 0.757c1.549 0.31 3.328 0.487 5.148 0.487 9.494 0 17.863-4.822 22.79-12.151l0.064-0.098c3.172-4.536 5.066-10.167 5.066-16.242s-1.897-11.706-5.129-16.334l0.062 0.092c-33.046-47.653-52.792-106.705-52.792-170.369 0-3.308 0.053-6.604 0.16-9.883l-0.012 0.48c2.516-198.813 164.271-359.011 363.444-359.011 1.388 0 2.774 0.008 4.158 0.023l-0.211-0.002c4.466-0.27 9.687-0.424 14.946-0.424 58.875 0 113.245 19.288 157.136 51.89l-0.707-0.501c4.963 4.551 11.608 7.341 18.901 7.341 15.465 0 28.002-12.537 28.002-28.002 0-2.612-0.358-5.139-1.027-7.538l0.048 0.197c-54.047-195.145-230.063-336.030-438.987-336.030-0.23 0-0.458 0-0.687 0.001h0.036zM381.295 815.952c-133.756-66.718-224.019-202.557-224.019-359.479 0-0.025 0-0.050 0-0.078v0.005c0.489-220.474 179.331-399.015 399.873-399.015 156.269 0 291.602 89.64 357.384 220.304l1.047 2.296c-38.083-14.238-82.088-22.478-128.015-22.478-2.642 0-5.278 0.027-7.908 0.081l0.393-0.008c-1.174-0.012-2.561-0.019-3.95-0.019-229.904 0-416.61 184.954-419.444 414.186l-0.003 0.268c-0.030 1.815-0.048 3.957-0.048 6.102 0 49.489 9.055 96.867 25.597 140.562l-0.907-2.731z" />
<glyph unicode="&#x1f31e;" glyph-name="sun" d="M507.078 679.386c-127.79 0-231.386-103.594-231.386-231.386s103.594-231.386 231.386-231.386c127.79 0 231.386 103.594 231.386 231.386v0c-0.279 127.676-103.706 231.106-231.357 231.386h-0.027zM507.078 265.846c-100.599 0-182.154 81.553-182.154 182.154s81.553 182.154 182.154 182.154c100.599 0 182.154-81.553 182.154-182.154v0c0-100.599-81.553-182.154-182.154-182.154v0zM536.616 743.383h-49.232v152.616h49.232zM487.384 152.617h49.232v-152.616h-49.232zM959.999 472.616v-49.232h-152.616v49.232zM216.617 423.384h-152.616v49.232h152.616zM740.922 637.539l-34.462 34.462 108.308 108.308 34.462-34.461zM322.461 219.078l-108.308-110.769-34.462 34.462 108.308 108.308zM740.922 253.538l108.308-108.308-34.462-34.462-108.308 108.308zM288.001 637.539l-108.308 108.308 34.461 34.462 108.308-108.308zM642.954 709.415l-45.293 18.708 59.076 147.693 47.261-18.708zM381.046 181.661l45.293-18.708-59.076-142.768-45.293 18.708zM797.047 362.339l142.768-59.076-18.708-45.293-142.768 59.076zM231.877 533.661l-147.693 59.076 18.708 45.293 147.693-59.076zM773.415 582.893l142.276 66.955 19.691-45.293-142.768-64.001zM250.585 305.232l-142.768-59.076-18.708 45.293 142.768 63.016zM654.768 186.585l59.076-142.768-45.293-18.708-63.016 142.768zM376.123 708.924l-65.969 142.768 49.231 19.691 64.001-142.768z" />
<glyph unicode="&#x1f50e;" glyph-name="search" horiz-adv-x="970" d="M475.871 845.124c-59.824 12.069-121.829 5.826-178.189-17.961-56.365-23.788-104.596-64.074-138.541-115.829-33.95-51.759-52.067-112.64-52.015-174.939 0.069-83.49 32.731-163.45 90.674-222.33 57.929-58.87 136.376-91.86 218.078-91.86 60.98 0 120.625 18.393 171.397 52.904 50.772 34.517 90.405 83.617 113.82 141.141s29.534 120.848 17.566 181.937c-11.968 61.087-41.466 117.134-84.705 161.075-43.235 43.935-98.26 73.793-158.085 85.863zM278.089 873.588c65.671 27.716 137.976 35.007 207.747 20.931 69.769-14.076 133.804-48.871 184.032-99.914 50.228-51.039 84.393-116.030 98.245-186.73 13.847-70.698 6.772-143.99-20.348-210.621-17.389-42.731-42.529-81.506-73.906-114.415l261.583-266.053-35.928-35.329-262.909 267.398c-6.797-5.382-13.807-10.527-21.008-15.419-59.077-40.156-128.581-61.622-199.721-61.622-95.337 0-186.685 38.503-253.994 106.907-67.295 68.384-105.067 161.059-105.147 257.632-0.060 72.078 20.897 142.59 60.27 202.617 39.374 60.032 95.415 106.903 161.082 134.617z" />
</font>
</defs>
</svg>
